<svg width="60" height="60" viewBox="0 0 60 60" fill="none" xmlns="http://www.w3.org/2000/svg">
<path d="M52.5 52.5H11.5C10.0999 52.5 9.3998 52.5 8.86503 52.2275C8.39463 51.9878 8.01217 51.6055 7.77247 51.135C7.5 50.6003 7.5 49.9003 7.5 48.5V7.5" stroke="#0C66E4" stroke-width="3" stroke-linecap="round" stroke-linejoin="round"/>
<path d="M30.5077 27.0458C31.0743 27.0459 31.6283 27.2161 32.0998 27.5351C32.5713 27.854 32.9394 28.3075 33.1576 28.8384C33.3758 29.3692 33.4344 29.9538 33.3261 30.5184C33.2178 31.083 32.9473 31.6025 32.5488 32.0114C32.1503 32.4203 31.6415 32.7004 31.0865 32.8163C30.5315 32.9323 29.9551 32.879 29.4299 32.6632C28.9047 32.4473 28.4541 32.0785 28.1349 31.6032C27.8157 31.1279 27.6422 30.5674 27.6361 29.9922C27.6341 29.6073 27.7068 29.2258 27.85 28.8695C27.9932 28.5131 28.2041 28.1889 28.4708 27.9153C28.7375 27.6417 29.0546 27.4241 29.4041 27.2749C29.7536 27.1257 30.1286 27.0479 30.5077 27.0458ZM23.3979 42.4636C24.3653 43.056 26.4691 42.1518 28.926 39.8134C28.1048 38.8661 27.3309 37.8775 26.6073 36.8515C25.3687 36.7106 24.1384 36.5025 22.9218 36.2279C22.1387 39.564 22.4304 41.8556 23.3979 42.4636ZM24.4881 33.5154L24.0428 32.7203C23.8692 33.1582 23.7205 33.6058 23.5975 34.061C24.0121 34.1545 24.4728 34.2325 24.9488 34.3104L24.4881 33.5154ZM34.5309 32.3306L35.7748 29.9922L34.5309 27.6538C34.0703 26.8276 33.5789 26.0949 33.1336 25.3622C32.3043 25.3154 31.429 25.3154 30.5077 25.3154C29.5863 25.3154 28.711 25.3154 27.8818 25.3154C27.4365 26.0481 26.9451 26.7808 26.4844 27.6071L25.2406 29.9922L26.4844 32.3306C26.9451 33.1568 27.4365 33.8895 27.8818 34.6222C28.711 34.6222 29.5863 34.6222 30.5077 34.6222C31.429 34.6222 32.3043 34.6222 33.1336 34.6222C33.5789 33.8895 34.0703 33.1568 34.5309 32.3306ZM30.5077 21.8546C30.2159 22.1976 29.9088 22.5561 29.6017 22.9771H31.4137C31.1066 22.5561 30.7994 22.1976 30.5077 21.8546ZM30.5077 38.1298C30.7994 37.7868 31.1066 37.4283 31.4137 37.0074H29.6017C29.9088 37.4283 30.2159 37.7868 30.5077 38.1298ZM37.6021 17.5208C36.6501 16.9284 34.5309 17.8326 32.0893 20.171C32.9105 21.1184 33.6844 22.1069 34.4081 23.1329C35.6456 23.2532 36.8758 23.4405 38.0935 23.6942C38.8767 20.3581 38.5849 18.0665 37.6021 17.4585M36.5272 26.4067L36.9725 27.2017C37.1461 26.7639 37.2948 26.3162 37.4179 25.8611C37.0033 25.7675 36.5426 25.6896 36.0665 25.6116L36.5272 26.4067ZM38.7538 15.4942C41.0112 16.8037 41.2569 20.2489 40.2894 24.271C44.1899 25.4402 47 27.3888 47 30.0078C47 32.6268 44.1899 34.5754 40.2894 35.7446C41.2415 39.7666 40.9958 43.2119 38.7538 44.5214C36.5119 45.8309 33.456 44.3343 30.5077 41.4815C27.5593 44.3343 24.5035 45.8309 22.2462 44.5214C19.9888 43.2119 19.7585 39.8446 20.7106 35.7446C16.8101 34.5754 14 32.6268 14 30.0078C14 27.3888 16.8101 25.4246 20.7106 24.2554C19.7585 20.2334 20.0042 16.7881 22.2462 15.4786C24.4881 14.1691 27.5593 15.6657 30.5077 18.5185C33.456 15.6657 36.5119 14.1691 38.7538 15.4786M38.3085 29.9922C38.8418 31.1398 39.3134 32.3159 39.7213 33.5154C42.946 32.5332 44.758 31.1302 44.758 29.9922C44.758 28.8542 42.9 27.4512 39.7213 26.469C39.3134 27.6685 38.8418 28.8446 38.3085 29.9922ZM22.7068 29.9922C22.1735 28.8446 21.7019 27.6685 21.2941 26.469C18.0693 27.4512 16.2573 28.8542 16.2573 29.9922C16.2573 31.1302 18.1154 32.5332 21.2941 33.5154C21.7019 32.3159 22.1735 31.1398 22.7068 29.9922ZM36.5272 33.5154L36.0665 34.3104C36.5426 34.3104 37.0033 34.1545 37.4179 34.061C37.2948 33.6058 37.1461 33.1582 36.9725 32.7203L36.5272 33.5154ZM32.0433 39.8134C34.4849 42.1518 36.6501 43.056 37.5561 42.4636C38.4621 41.8712 38.8306 39.6263 38.0475 36.2279C36.8297 36.4815 35.5995 36.6689 34.362 36.7891C33.64 37.8364 32.8661 38.8458 32.0433 39.8134ZM24.4881 26.469L24.9488 25.674C24.4728 25.674 24.0121 25.8299 23.5975 25.9234C23.7205 26.3786 23.8692 26.8262 24.0428 27.2641L24.4881 26.469ZM28.9721 20.171C26.4844 17.8326 24.3653 16.9284 23.3979 17.5208C22.4304 18.1132 22.1387 20.3581 22.9218 23.7565C24.1396 23.5029 25.3698 23.3155 26.6073 23.1953C27.3442 22.1469 28.1335 21.1375 28.9721 20.171Z" fill="#0C66E4"/>
</svg>
